# xmcd CD database file
#
# Track frame offsets:
#	150
#	11592
#	22697
#	33337
#	44060
#	54250
#	65847
#	76342
#	88040
#	97200
#	110205
#	119630
#	130412
#	140675
#	151770
#	162685
#	177235
#	187480
#	196657
#
# Disc length: 2746 seconds
#
# Revision: 0
# Processed by: cddbd v1.5.1PL0 Copyright (c) Steve Scherf et al.
# Submitted via: CDex 1.51
#
DISCID=160ab813
DTITLE=Waylon Jennings - The one and only - Herataches by the number
DYEAR=2004
DGENRE=Country
TTITLE0=Yes, virginia
TTITLE1=Dream baby (How long must I dream)
TTITLE2=You beat all I ever saw
TTITLE3=She loves me
TTITLE4=It's all over now
TTITLE5=Born to love you
TTITLE6=Down came the world
TTITLE7=The dark side of fame
TTITLE8=John's back in town
TTITLE9=Listen, they're playing my song
TTITLE10=Heartaches by the number
TTITLE11=Tiger by the tail
TTITLE12=Foolin' 'round
TTITLE13=(That's what you get) For loving me
TTITLE14=You're gonna wonder about me
TTITLE15=Folsom prison blues
TTITLE16=Busted
TTITLE17=Time to burn again
TTITLE18=Leavin' town
EXTD=YEAR: 2004
EXTT0=
EXTT1=
EXTT2=
EXTT3=
EXTT4=
EXTT5=
EXTT6=
EXTT7=
EXTT8=
EXTT9=
EXTT10=
EXTT11=
EXTT12=
EXTT13=
EXTT14=
EXTT15=
EXTT16=
EXTT17=
EXTT18=
PLAYORDER=
